# xmcd
# 
# Track frame offsets:
#     150
#     12154
#     25372
#     37602
#     50237
#     62591
#     74935
#     87798
#     102247
#     114269
#     126596
#     138433
#     153027
#     166188
#     178452
#     191249
#     204139
#     215623
#     228854
#     242117
#     254621
#     266818
#     279524
#     293330
# 
# Disc length: 4070
# 
# Revision: 3
# Processed by: cddbd v1.5.2PL0 Copyright (c) Steve Scherf et al.
# Submitted via: fre:ac v1.0.17
# 
DISCID=610fe418
DTITLE=Various Artist - Golden Greats:  Greatest Country Hits Disc 3
DYEAR=0
DGENRE=Country
TTITLE0=Spade Cooley - Crazy 'Cause I Love You
TTITLE1=Sons of The Pioneers - Private Bucakroo
TTITLE2=Bill Monroe - Kentucky Waltz
TTITLE3=Little Jimmy Dickens - Take An Old Cold 'Tater (And Wait)
TTITLE4=Hank Williams - Move It On Over
TTITLE5=Floyd Tillman - Slippin' Around
TTITLE6=Carson Robison - Life Gits Tee-jus, Don't It
TTITLE7=Bill Boyd and The Cowboy Ramblers - Shame On You
TTITLE8=Eddy Arnold - Texarkana Baby
TTITLE9=Jimmie Davis - Bang Bang
TTITLE10=Floyd Tillman - Drivin' Nails In My Coffin
TTITLE11=Ernest Tubb - My Filipino Rose
TTITLE12=George Morgan - Room Full Of Roses
TTITLE13=Gene Autry - Gonna Build A Big Fence Around Texas
TTITLE14=Red Foley - Never Trust A Woman
TTITLE15=Roy Acuff - Jole Blon
TTITLE16=Hank Williams - My Bucket's Got A Hole In It
TTITLE17=Little Jimmy Dickens - Country Boy
TTITLE18=Bob Wills - Smoke On The Water
TTITLE19=Al Dexter - Rosalita
TTITLE20=Floyd Tillman - I Love You So Much It Hurts
TTITLE21=Roy Rogers - Blue Shadows On The Trail
TTITLE22=Kenny Roberts - I Never See Maggie Alone
TTITLE23=Bill Monroe - Footprints In The Snow
EXTD=
EXTT0=
EXTT1=
EXTT2=
EXTT3=
EXTT4=
EXTT5=
EXTT6=
EXTT7=
EXTT8=
EXTT9=
EXTT10=
EXTT11=
EXTT12=
EXTT13=
EXTT14=
EXTT15=
EXTT16=
EXTT17=
EXTT18=
EXTT19=
EXTT20=
EXTT21=
EXTT22=
EXTT23=
PLAYORDER=
